<svg width="207" height="16" viewBox="0 0 207 16" fill="none" xmlns="http://www.w3.org/2000/svg">
<mask id="path-1-inside-1_5_70" fill="white">
<path d="M95.5622 0.535731C94.736 0.670115 93.197 1.25244 92.549 1.64066C91.5122 2.31258 90.5727 3.77587 90.5403 4.77628C90.5403 5.47806 90.8805 6.2993 91.4636 6.88163C92.144 7.58341 92.9054 7.673 93.4562 7.13546C93.9584 6.62779 93.8612 6.17984 93.0998 5.52286L92.4032 4.94053L92.7272 4.38806C93.2294 3.52203 94.1366 3.05916 95.303 3.05916C96.9553 3.07409 98.1703 3.85053 98.9479 5.37354C99.4501 6.37395 99.5149 7.71779 99.0775 8.4793C98.4133 9.61409 96.3235 10.51 94.3472 10.51C92.8892 10.4951 91.6256 10.1815 88.9203 9.16615C84.433 7.46395 84.1738 7.3893 82.1974 7.3893C80.1077 7.3893 79.4435 7.59834 76.6409 9.12135L74.9724 10.0471L73.401 9.2856C71.1331 8.1956 69.9505 7.89697 67.5205 7.80738C64.9772 7.70286 64.2482 7.83724 61.8182 8.91231L59.9229 9.74848L57.4443 8.61368C56.0998 7.98656 53.443 6.74724 51.5801 5.86628C46.4286 3.43244 43.14 2.43203 39.1225 2.07368C34.9916 1.68546 32.7074 2.4619 25.0936 6.79204C18.9863 10.2561 18.0953 10.6294 15.0336 10.8833C9.93069 11.3163 5.41099 10.0023 1.23147 6.86669C-0.323698 5.70203 -0.437096 5.89614 1.06947 7.16532C5.02219 10.4951 10.1575 12.242 15.39 12.0479C18.5327 11.9285 19.8773 11.4507 25.9684 8.31505C29.8563 6.32916 32.6588 5.04505 34.2464 4.55231C36.9032 3.71614 40.4833 3.94012 44.7276 5.22423C46.8821 5.88121 49.5065 7.01601 54.6256 9.5245L57.6873 11.0177L55.6786 11.9135C52.9246 13.1529 52.1632 13.3619 50.6081 13.347C47.8703 13.3022 45.1488 12.3914 39.5923 9.64396C34.4408 7.09067 33.0152 6.56806 31.1847 6.56806C30.0183 6.56806 28.8681 7.01601 27.8799 7.83724C26.9403 8.61368 26.665 9.39012 26.746 11.0177C26.827 12.4959 27.2157 13.347 28.2039 14.1234C28.9653 14.7057 30.5853 15.3777 31.5249 15.4672C33.7604 15.7211 35.996 14.4668 36.2228 12.8393C36.3362 12.0778 36.2066 11.6149 35.6882 11.0624C35.186 10.51 34.619 10.4652 34.2626 10.9281C33.9062 11.3909 33.9224 11.4507 34.5218 11.9434C34.9754 12.3316 35.0078 12.4212 34.8458 12.7646C34.7486 12.9737 34.4246 13.2723 34.133 13.4515C33.4364 13.8397 32.1728 13.78 31.4439 13.3171C30.8283 12.899 30.1155 11.6149 30.1155 10.8982C30.1155 9.8082 31.2981 8.80779 32.5616 8.80779C33.6632 8.80779 35.3642 9.43491 39.5113 11.3611C45.0192 13.9293 47.8703 14.7804 50.8349 14.7804C51.5315 14.7804 52.4872 14.6759 52.9732 14.5415C53.9614 14.2727 56.4886 13.123 58.0761 12.2271L59.1453 11.6298L60.6357 12.1524C63.6326 13.1977 66.1436 13.7352 68.7679 13.8397C71.457 13.9592 73.5306 13.4963 77.1755 11.9434C80.3345 10.5996 81.8572 10.2263 83.38 10.4503C84.5464 10.6294 84.514 10.6145 88.1589 11.9583C92.9702 13.7352 95.2544 14.1383 97.7491 13.6755C99.4177 13.3619 101.459 12.4511 102.593 11.4805L103.5 10.719L104.407 11.4805C105.541 12.4511 107.582 13.3619 109.251 13.6755C111.746 14.1383 114.03 13.7352 118.841 11.9583C122.486 10.6145 122.454 10.6294 123.62 10.4503C124.738 10.286 126.082 10.4951 127.67 11.0774C128.771 11.4805 128.917 11.5701 128.739 11.7792C128.561 11.9882 128.561 11.9882 128.788 11.824C129.014 11.6746 129.371 11.7642 130.958 12.3914C134.02 13.6008 134.96 13.8098 137.6 13.8098C140.451 13.8098 142.979 13.347 145.976 12.2868L147.045 11.9135L148.001 12.4361C149.475 13.2574 151.775 14.2727 152.731 14.5415C153.217 14.6759 154.173 14.7804 154.869 14.7804C157.834 14.7804 160.669 13.9293 166.193 11.3611C170.34 9.43491 172.041 8.80779 173.142 8.80779C174.406 8.80779 175.589 9.8082 175.589 10.8982C175.589 11.6149 174.876 12.899 174.26 13.3171C173.531 13.78 172.268 13.8397 171.571 13.4515C171.279 13.2723 170.955 12.9737 170.858 12.7646C170.696 12.4212 170.729 12.3316 171.182 11.9434C171.782 11.4507 171.798 11.3909 171.441 10.9281C170.761 10.0322 169.433 11.1222 169.433 12.5855C169.433 13.8098 170.777 15.0492 172.494 15.3926C173.726 15.6315 174.827 15.4672 176.188 14.8551C178.197 13.9442 178.99 12.7049 178.99 10.5398C178.99 9.25574 178.65 8.4793 177.776 7.77752C176.804 6.98615 175.67 6.56806 174.519 6.56806C172.721 6.56806 171.215 7.1056 166.371 9.50957C161.171 12.0927 158.838 12.9588 156.068 13.3022C154.254 13.5112 153.071 13.2723 150.479 12.1524L148.632 11.3312L152.18 9.59916C157.785 6.88163 160.069 5.89614 162.272 5.22423C166.517 3.95505 170.097 3.71614 172.754 4.55231C174.341 5.04505 177.144 6.32916 181.032 8.31505C187.123 11.4507 188.467 11.9285 191.61 12.0479C196.843 12.242 201.978 10.4951 205.931 7.16532C207.437 5.89614 207.324 5.70203 205.769 6.86669C201.589 10.0023 197.069 11.3163 191.966 10.8833C188.905 10.6294 188.014 10.2561 181.906 6.79204C176.237 3.56683 173.742 2.47683 171.101 2.05875C168.914 1.71532 164.719 2.31258 161.252 3.43244C159.065 4.14916 157.299 4.91066 152.747 7.1056C150.479 8.1956 148.098 9.30053 147.466 9.55437L146.316 10.0322L144.177 9.04669C141.553 7.85217 140.808 7.70286 138.167 7.80738C135.883 7.88204 134.668 8.18067 132.627 9.12135L131.38 9.70368L130.132 9.0019C129.452 8.62861 128.383 8.10601 127.735 7.85217C126.682 7.43409 126.439 7.3893 124.803 7.3893C122.826 7.3893 122.567 7.46395 118.08 9.16615C115.374 10.1815 114.111 10.4951 112.653 10.51C110.676 10.51 108.587 9.61409 107.923 8.4793C107.485 7.71779 107.55 6.37395 108.052 5.37354C108.83 3.85053 110.045 3.07409 111.697 3.05916C112.863 3.05916 113.771 3.52203 114.273 4.38806L114.597 4.94053L113.9 5.52286C113.139 6.17984 113.042 6.62779 113.544 7.13546C114.095 7.673 114.856 7.58341 115.536 6.88163C116.719 5.67217 116.719 4.22381 115.553 2.67094C114.176 0.81943 110.757 0.0131283 108.036 0.879156C106.335 1.43162 104.553 2.55149 103.775 3.58176L103.5 3.94012L103.225 3.58176C102.447 2.55149 100.649 1.41669 99.0289 0.909019C98.0245 0.610389 96.2911 0.416279 95.5622 0.535731ZM71.2626 8.92724C72.4614 9.27067 73.725 9.74848 74.211 10.062C74.535 10.2711 74.5188 10.286 73.9194 10.5697C71.1007 11.8986 67.3747 11.9733 63.1628 10.8086C62.4014 10.5996 61.7372 10.3756 61.6725 10.3159C61.4781 10.1516 64.2158 8.92724 65.2364 8.70327C66.5809 8.4345 69.9181 8.55395 71.2626 8.92724ZM140.208 8.67341C141.083 8.80779 142.768 9.49464 144.145 10.2711L144.696 10.5697L143.578 10.8833C139.074 12.1077 134.895 11.7941 132.011 10.0172C131.623 9.77834 133.729 9.03176 135.98 8.59875C136.661 8.4793 139.285 8.50916 140.208 8.67341Z"/>
</mask>
<path d="M95.5622 0.535731C94.736 0.670115 93.197 1.25244 92.549 1.64066C91.5122 2.31258 90.5727 3.77587 90.5403 4.77628C90.5403 5.47806 90.8805 6.2993 91.4636 6.88163C92.144 7.58341 92.9054 7.673 93.4562 7.13546C93.9584 6.62779 93.8612 6.17984 93.0998 5.52286L92.4032 4.94053L92.7272 4.38806C93.2294 3.52203 94.1366 3.05916 95.303 3.05916C96.9553 3.07409 98.1703 3.85053 98.9479 5.37354C99.4501 6.37395 99.5149 7.71779 99.0775 8.4793C98.4133 9.61409 96.3235 10.51 94.3472 10.51C92.8892 10.4951 91.6256 10.1815 88.9203 9.16615C84.433 7.46395 84.1738 7.3893 82.1974 7.3893C80.1077 7.3893 79.4435 7.59834 76.6409 9.12135L74.9724 10.0471L73.401 9.2856C71.1331 8.1956 69.9505 7.89697 67.5205 7.80738C64.9772 7.70286 64.2482 7.83724 61.8182 8.91231L59.9229 9.74848L57.4443 8.61368C56.0998 7.98656 53.443 6.74724 51.5801 5.86628C46.4286 3.43244 43.14 2.43203 39.1225 2.07368C34.9916 1.68546 32.7074 2.4619 25.0936 6.79204C18.9863 10.2561 18.0953 10.6294 15.0336 10.8833C9.93069 11.3163 5.41099 10.0023 1.23147 6.86669C-0.323698 5.70203 -0.437096 5.89614 1.06947 7.16532C5.02219 10.4951 10.1575 12.242 15.39 12.0479C18.5327 11.9285 19.8773 11.4507 25.9684 8.31505C29.8563 6.32916 32.6588 5.04505 34.2464 4.55231C36.9032 3.71614 40.4833 3.94012 44.7276 5.22423C46.8821 5.88121 49.5065 7.01601 54.6256 9.5245L57.6873 11.0177L55.6786 11.9135C52.9246 13.1529 52.1632 13.3619 50.6081 13.347C47.8703 13.3022 45.1488 12.3914 39.5923 9.64396C34.4408 7.09067 33.0152 6.56806 31.1847 6.56806C30.0183 6.56806 28.8681 7.01601 27.8799 7.83724C26.9403 8.61368 26.665 9.39012 26.746 11.0177C26.827 12.4959 27.2157 13.347 28.2039 14.1234C28.9653 14.7057 30.5853 15.3777 31.5249 15.4672C33.7604 15.7211 35.996 14.4668 36.2228 12.8393C36.3362 12.0778 36.2066 11.6149 35.6882 11.0624C35.186 10.51 34.619 10.4652 34.2626 10.9281C33.9062 11.3909 33.9224 11.4507 34.5218 11.9434C34.9754 12.3316 35.0078 12.4212 34.8458 12.7646C34.7486 12.9737 34.4246 13.2723 34.133 13.4515C33.4364 13.8397 32.1728 13.78 31.4439 13.3171C30.8283 12.899 30.1155 11.6149 30.1155 10.8982C30.1155 9.8082 31.2981 8.80779 32.5616 8.80779C33.6632 8.80779 35.3642 9.43491 39.5113 11.3611C45.0192 13.9293 47.8703 14.7804 50.8349 14.7804C51.5315 14.7804 52.4872 14.6759 52.9732 14.5415C53.9614 14.2727 56.4886 13.123 58.0761 12.2271L59.1453 11.6298L60.6357 12.1524C63.6326 13.1977 66.1436 13.7352 68.7679 13.8397C71.457 13.9592 73.5306 13.4963 77.1755 11.9434C80.3345 10.5996 81.8572 10.2263 83.38 10.4503C84.5464 10.6294 84.514 10.6145 88.1589 11.9583C92.9702 13.7352 95.2544 14.1383 97.7491 13.6755C99.4177 13.3619 101.459 12.4511 102.593 11.4805L103.5 10.719L104.407 11.4805C105.541 12.4511 107.582 13.3619 109.251 13.6755C111.746 14.1383 114.03 13.7352 118.841 11.9583C122.486 10.6145 122.454 10.6294 123.62 10.4503C124.738 10.286 126.082 10.4951 127.67 11.0774C128.771 11.4805 128.917 11.5701 128.739 11.7792C128.561 11.9882 128.561 11.9882 128.788 11.824C129.014 11.6746 129.371 11.7642 130.958 12.3914C134.02 13.6008 134.96 13.8098 137.6 13.8098C140.451 13.8098 142.979 13.347 145.976 12.2868L147.045 11.9135L148.001 12.4361C149.475 13.2574 151.775 14.2727 152.731 14.5415C153.217 14.6759 154.173 14.7804 154.869 14.7804C157.834 14.7804 160.669 13.9293 166.193 11.3611C170.34 9.43491 172.041 8.80779 173.142 8.80779C174.406 8.80779 175.589 9.8082 175.589 10.8982C175.589 11.6149 174.876 12.899 174.26 13.3171C173.531 13.78 172.268 13.8397 171.571 13.4515C171.279 13.2723 170.955 12.9737 170.858 12.7646C170.696 12.4212 170.729 12.3316 171.182 11.9434C171.782 11.4507 171.798 11.3909 171.441 10.9281C170.761 10.0322 169.433 11.1222 169.433 12.5855C169.433 13.8098 170.777 15.0492 172.494 15.3926C173.726 15.6315 174.827 15.4672 176.188 14.8551C178.197 13.9442 178.99 12.7049 178.99 10.5398C178.99 9.25574 178.65 8.4793 177.776 7.77752C176.804 6.98615 175.67 6.56806 174.519 6.56806C172.721 6.56806 171.215 7.1056 166.371 9.50957C161.171 12.0927 158.838 12.9588 156.068 13.3022C154.254 13.5112 153.071 13.2723 150.479 12.1524L148.632 11.3312L152.18 9.59916C157.785 6.88163 160.069 5.89614 162.272 5.22423C166.517 3.95505 170.097 3.71614 172.754 4.55231C174.341 5.04505 177.144 6.32916 181.032 8.31505C187.123 11.4507 188.467 11.9285 191.61 12.0479C196.843 12.242 201.978 10.4951 205.931 7.16532C207.437 5.89614 207.324 5.70203 205.769 6.86669C201.589 10.0023 197.069 11.3163 191.966 10.8833C188.905 10.6294 188.014 10.2561 181.906 6.79204C176.237 3.56683 173.742 2.47683 171.101 2.05875C168.914 1.71532 164.719 2.31258 161.252 3.43244C159.065 4.14916 157.299 4.91066 152.747 7.1056C150.479 8.1956 148.098 9.30053 147.466 9.55437L146.316 10.0322L144.177 9.04669C141.553 7.85217 140.808 7.70286 138.167 7.80738C135.883 7.88204 134.668 8.18067 132.627 9.12135L131.38 9.70368L130.132 9.0019C129.452 8.62861 128.383 8.10601 127.735 7.85217C126.682 7.43409 126.439 7.3893 124.803 7.3893C122.826 7.3893 122.567 7.46395 118.08 9.16615C115.374 10.1815 114.111 10.4951 112.653 10.51C110.676 10.51 108.587 9.61409 107.923 8.4793C107.485 7.71779 107.55 6.37395 108.052 5.37354C108.83 3.85053 110.045 3.07409 111.697 3.05916C112.863 3.05916 113.771 3.52203 114.273 4.38806L114.597 4.94053L113.9 5.52286C113.139 6.17984 113.042 6.62779 113.544 7.13546C114.095 7.673 114.856 7.58341 115.536 6.88163C116.719 5.67217 116.719 4.22381 115.553 2.67094C114.176 0.81943 110.757 0.0131283 108.036 0.879156C106.335 1.43162 104.553 2.55149 103.775 3.58176L103.5 3.94012L103.225 3.58176C102.447 2.55149 100.649 1.41669 99.0289 0.909019C98.0245 0.610389 96.2911 0.416279 95.5622 0.535731ZM71.2626 8.92724C72.4614 9.27067 73.725 9.74848 74.211 10.062C74.535 10.2711 74.5188 10.286 73.9194 10.5697C71.1007 11.8986 67.3747 11.9733 63.1628 10.8086C62.4014 10.5996 61.7372 10.3756 61.6725 10.3159C61.4781 10.1516 64.2158 8.92724 65.2364 8.70327C66.5809 8.4345 69.9181 8.55395 71.2626 8.92724ZM140.208 8.67341C141.083 8.80779 142.768 9.49464 144.145 10.2711L144.696 10.5697L143.578 10.8833C139.074 12.1077 134.895 11.7941 132.011 10.0172C131.623 9.77834 133.729 9.03176 135.98 8.59875C136.661 8.4793 139.285 8.50916 140.208 8.67341Z" fill="white" stroke="#FF0000" stroke-width="2" mask="url(#path-1-inside-1_5_70)"/>
</svg>
